# Blender v2.90.1 OBJ File: 'car .blend'
# www.blender.org
mtllib car.mtl
o Cube_Cube.001
v 1.000000 0.064212 1.839113
v 1.000000 2.063228 1.776374
v 3.519942 2.031859 0.776866
v 3.519942 0.032843 0.839605
v 1.000000 2.031859 0.776866
v 1.000000 0.032843 0.839605
v 3.519942 0.064212 1.839113
v 3.519942 2.063228 1.776374
v 1.000000 0.631881 -0.831164
v 1.000000 0.001473 -0.159903
v 1.000000 1.329229 -0.853050
v 1.000000 2.000489 -0.222642
v 1.000000 0.633185 -0.789618
v 1.651155 -0.038075 -1.420026
v 1.000000 1.330532 -0.811505
v 1.651155 1.960940 -1.482765
v 3.519942 0.605922 -0.803522
v 3.519942 0.001473 -0.159903
v 3.519942 1.356870 -0.827090
v 3.519942 2.000489 -0.222642
v 3.519942 0.605543 -0.815578
v 2.895602 -0.038075 -1.420026
v 2.895602 1.960940 -1.482765
v 3.519942 1.356492 -0.839146
v 4.574941 0.001473 -0.159903
v 5.550232 1.006878 0.784313
v 5.550232 1.008429 0.833708
v 4.574941 0.064212 1.839113
v 5.550232 1.056273 0.782763
v 4.574941 2.000489 -0.222642
v 4.574941 2.063228 1.776374
v 5.550232 1.057823 0.832157
v -1.000000 1.040676 0.816054
v 0.008075 0.001473 -0.159903
v -1.000000 1.040169 0.799910
v 0.008075 0.064212 1.839113
v -1.000000 1.024533 0.816560
v 0.008075 2.000489 -0.222642
v -1.000000 1.024026 0.800417
v 0.008075 2.063228 1.776374
v 5.550232 1.007654 0.809010
v 4.574941 0.032843 0.839605
v 4.574941 2.031859 0.776866
v 5.550232 1.057048 0.807460
v 0.008075 0.032843 0.839605
v -1.000000 1.040422 0.807982
v 0.008075 2.031859 0.776866
v -1.000000 1.024279 0.808489
v 5.550232 1.057436 0.819809
v 1.000000 0.048528 1.339359
v 4.574941 0.048528 1.339359
v 1.000000 2.047543 1.276620
v 3.519942 0.048528 1.339359
v 3.519942 2.047543 1.276620
v 5.550232 1.008041 0.821359
v 4.574941 2.047543 1.276620
v 0.008075 0.048528 1.339359
v -1.000000 1.024153 0.804453
v -1.000000 1.040296 0.803946
v 0.008075 2.047543 1.276620
v 3.519942 0.056370 1.589236
v 3.519942 2.055386 1.526497
v 5.550232 1.008235 0.827533
v 4.574941 2.055386 1.526497
v 0.008075 0.056370 1.589236
v -1.000000 1.024089 0.802435
v 5.550232 1.057629 0.825983
v 1.000000 0.056370 1.589236
v 4.574941 0.056370 1.589236
v 1.000000 2.055386 1.526497
v -1.000000 1.040232 0.801928
v 0.008075 2.055386 1.526497
v 1.000000 2.259805 1.269958
v 1.000000 2.244121 0.770204
v 1.000000 2.275490 1.769712
v 0.008075 2.275490 1.769712
v 0.008075 2.259805 1.269958
v 0.008075 2.244121 0.770204
v 1.000000 2.267648 1.519835
v 0.008075 2.267648 1.519835
v 3.519942 2.215948 1.521457
v 3.519942 2.223790 1.771334
v 4.574941 2.215948 1.521457
v 4.574941 2.223790 1.771334
v 3.519942 2.192421 0.771827
v 4.574941 2.192421 0.771827
v 3.519942 2.208105 1.271580
v 4.574941 2.208105 1.271580
v 4.574941 -0.115862 1.344518
v 4.574941 -0.131547 0.844764
v 3.519942 -0.108020 1.594395
v 3.519942 -0.100177 1.844272
v 4.574941 -0.100177 1.844272
v 3.519942 -0.131547 0.844764
v 4.574941 -0.108020 1.594395
v 3.519942 -0.115862 1.344518
v 1.000000 -0.186294 1.346729
v 1.000000 -0.201979 0.846975
v 0.008075 -0.178452 1.596606
v 0.008075 -0.170610 1.846483
v 1.000000 -0.170610 1.846483
v 0.008075 -0.201979 0.846975
v 1.000000 -0.178452 1.596606
v 0.008075 -0.186294 1.346729
vt 0.500000 0.626009
vt 0.500000 0.750000
vt 0.500000 0.750000
vt 0.500000 0.626009
vt 0.250000 0.500000
vt 0.375000 0.500000
vt 0.375000 0.623991
vt 0.250000 0.623991
vt 0.501009 0.250000
vt 0.625000 0.250000
vt 0.625000 0.500000
vt 0.501009 0.500000
vt 0.375000 0.831394
vt 0.375000 0.918606
vt 0.375000 0.918606
vt 0.375000 0.831394
vt 0.375000 0.750000
vt 0.375000 1.000000
vt 0.375000 1.000000
vt 0.375000 0.750000
vt 0.375000 0.750000
vt 0.498991 0.750000
vt 0.498991 1.000000
vt 0.375000 1.000000
vt 0.375000 0.500000
vt 0.375000 0.500000
vt 0.375000 0.500000
vt 0.156250 0.500000
vt 0.125000 0.500000
vt 0.125000 0.500000
vt 0.156250 0.500000
vt 0.625000 0.250000
vt 0.625000 0.500000
vt 0.375000 0.750000
vt 0.375000 1.000000
vt 0.375000 1.000000
vt 0.375000 0.750000
vt 0.250000 0.500000
vt 0.250000 0.500000
vt 0.250000 0.500000
vt 0.250000 0.500000
vt 0.375000 0.921957
vt 0.375000 0.828043
vt 0.375000 0.828043
vt 0.375000 0.921957
vt 0.500000 0.121911
vt 0.503089 0.121911
vt 0.503089 0.128089
vt 0.500000 0.128089
vt 0.750000 0.626009
vt 0.748991 0.626009
vt 0.748991 0.623991
vt 0.750000 0.623991
vt 0.625000 0.750000
vt 0.625000 0.750000
vt 0.625000 0.750000
vt 0.625000 0.750000
vt 0.625000 0.250000
vt 0.625000 0.500000
vt 0.375000 0.500000
vt 0.375000 0.500000
vt 0.500000 0.750000
vt 0.497684 0.121911
vt 0.496911 0.121911
vt 0.375000 0.000000
vt 0.406250 0.000000
vt 0.156250 0.500000
vt 0.125000 0.500000
vt 0.246911 0.500000
vt 0.247684 0.500000
vt 0.625000 0.371911
vt 0.625000 0.378089
vt 0.375000 0.878089
vt 0.375000 0.871911
vt 0.625000 0.750000
vt 0.500000 0.750000
vt 0.656250 0.750000
vt 0.625000 0.750000
vt 0.751009 0.623991
vt 0.750757 0.623991
vt 0.625000 0.876009
vt 0.625000 0.873991
vt 0.248991 0.750000
vt 0.250000 0.750000
vt 0.375000 0.373991
vt 0.375000 0.376009
vt 0.625000 0.626009
vt 0.187500 0.623991
vt 0.250505 0.750000
vt 0.875000 0.750000
vt 0.750000 0.750000
vt 0.625000 0.250000
vt 0.625000 0.250000
vt 0.375000 0.500000
vt 0.250000 0.500000
vt 0.253089 0.500000
vt 0.500000 0.000000
vt 0.625000 0.000000
vt 0.437500 0.750000
vt 0.437500 0.750000
vt 0.750505 0.626009
vt 0.750505 0.623991
vt 0.498456 0.121911
vt 0.498456 0.128089
vt 0.187500 0.623991
vt 0.250000 0.623991
vt 0.250000 0.500000
vt 0.497684 0.128089
vt 0.750757 0.626009
vt 0.406250 0.750000
vt 0.406250 0.750000
vt 0.437500 0.000000
vt 0.437500 0.000000
vt 0.500000 0.000000
vt 0.156250 0.623991
vt 0.250757 0.750000
vt 0.687500 0.750000
vt 0.187500 0.500000
vt 0.248456 0.500000
vt 0.156250 0.500000
vt 0.125000 0.500000
vt 0.187500 0.500000
vt 0.187500 0.500000
vt 0.437500 0.750000
vt 0.406250 0.750000
vt 0.125000 0.623991
vt 0.251009 0.750000
vt 0.375000 0.000000
vt 0.406250 0.000000
vt 0.375000 0.750000
vt 0.375000 0.750000
vt 0.751009 0.626009
vt 0.496911 0.128089
vt 0.187500 0.500000
vt 0.156250 0.500000
vt 0.156250 0.500000
vt 0.187500 0.500000
vt 0.156250 0.623991
vt 0.125000 0.500000
vt 0.125000 0.623991
vt 0.625000 0.500000
vt 0.501009 0.500000
vt 0.125000 0.500000
vt 0.187500 0.500000
vt 0.625000 0.500000
vt 0.625000 0.500000
vt 0.437500 0.750000
vt 0.500000 0.750000
vt 0.500000 0.750000
vt 0.437500 0.750000
vt 0.406250 0.750000
vt 0.406250 0.750000
vt 0.375000 0.750000
vt 0.375000 0.750000
vt 0.437500 0.626009
vt 0.406250 0.626009
vt 0.375000 0.626009
vt 0.375000 0.750000
vt 0.750000 0.750000
vt 0.687500 0.750000
vt 0.656250 0.750000
vt 0.625000 0.750000
vt 0.501009 0.250000
vt 0.625000 0.250000
vn 0.0000 -0.0314 -0.9995
vn 0.0000 0.9995 -0.0314
vn 0.0000 0.0314 0.9995
vn 1.0000 0.0000 0.0000
vn -1.0000 0.0000 0.0000
vn 0.0000 -0.9995 0.0314
vn -0.7071 -0.0222 -0.7068
vn -0.8071 0.3898 -0.4435
vn -0.8071 -0.4169 -0.4182
vn 0.7071 -0.0222 -0.7068
vn 0.8191 0.3967 -0.4144
vn 0.8191 -0.4219 -0.3887
vn 0.7071 -0.7068 0.0222
vn 0.7071 0.7068 -0.0222
vn 0.7071 0.0222 0.7068
vn -0.7071 -0.7068 0.0222
vn -0.7071 0.7068 -0.0222
vn -0.7071 0.0222 0.7068
usemtl None
s off
f 45/1/1 6/2/1 98/3/1 102/4/1
f 5/5/2 12/6/2 38/7/2 47/8/2
f 36/9/3 1/10/3 2/11/3 40/12/3
f 9/13/4 11/14/4 15/15/4 13/16/4
f 14/17/1 16/18/1 23/19/1 22/20/1
f 10/21/1 34/22/1 38/23/1 12/24/1
f 12/6/2 20/25/2 23/26/2 16/27/2
f 70/28/2 2/29/2 8/30/2 62/31/2
f 2/11/3 1/10/3 7/32/3 8/33/3
f 18/34/1 20/35/1 30/36/1 25/37/1
f 43/38/1 3/39/1 85/40/1 86/41/1
f 19/42/4 17/43/4 21/44/4 24/45/4
f 41/46/4 26/47/4 29/48/4 44/49/4
f 48/50/5 37/51/5 33/52/5 46/53/5
f 18/54/6 10/55/6 14/56/6 22/57/6
f 10/21/5 12/24/5 11/14/5 9/13/5
f 13/16/7 15/15/7 16/18/7 14/17/7
f 12/24/8 16/18/8 15/15/8 11/14/8
f 14/17/9 10/21/9 9/13/9 13/16/9
f 8/33/3 7/32/3 28/58/3 31/59/3
f 17/43/4 19/42/4 20/35/4 18/34/4
f 22/20/10 23/19/10 24/45/10 21/44/10
f 19/60/11 24/61/11 23/26/11 20/25/11
f 21/44/12 17/43/12 18/34/12 22/20/12
f 6/2/6 10/55/6 18/54/6 4/62/6
f 63/63/13 27/64/13 28/65/13 69/66/13
f 64/67/14 31/68/14 32/69/14 67/70/14
f 31/59/15 28/58/15 27/71/15 32/72/15
f 25/37/10 30/36/10 29/73/10 26/74/10
f 4/62/6 18/54/6 25/75/6 42/76/6
f 65/77/16 36/78/16 35/79/16 71/80/16
f 38/23/7 34/22/7 33/81/7 37/82/7
f 47/8/17 38/7/17 37/83/17 48/84/17
f 36/9/18 40/12/18 39/85/18 35/86/18
f 45/1/6 34/87/6 10/55/6 6/2/6
f 60/88/17 47/8/17 48/84/17 58/89/17
f 34/90/16 45/91/16 46/53/16 33/52/16
f 28/58/3 7/32/3 92/92/3 93/93/3
f 30/94/14 43/38/14 44/95/14 29/96/14
f 26/47/13 41/46/13 42/97/13 25/98/13
f 50/99/6 6/2/6 4/62/6 53/100/6
f 58/101/5 48/50/5 46/53/5 59/102/5
f 55/103/4 41/46/4 44/49/4 49/104/4
f 20/25/2 3/39/2 43/38/2 30/94/2
f 12/6/2 5/5/2 3/39/2 20/25/2
f 47/8/5 60/88/5 77/105/5 78/106/5
f 5/5/1 47/8/1 78/106/1 74/107/1
f 63/63/4 55/103/4 49/104/4 67/108/4
f 66/109/5 58/101/5 59/102/5 71/80/5
f 68/110/6 50/99/6 53/100/6 61/111/6
f 42/97/4 51/112/4 89/113/4 90/114/4
f 72/115/17 60/88/17 58/89/17 66/116/17
f 45/91/16 57/117/16 59/102/16 46/53/16
f 43/38/14 56/118/14 49/119/14 44/95/14
f 41/46/13 55/103/13 51/112/13 42/97/13
f 31/68/4 64/67/4 83/120/4 84/121/4
f 5/5/2 52/122/2 54/123/2 3/39/2
f 6/2/4 50/99/4 97/124/4 98/3/4
f 50/99/4 68/110/4 103/125/4 97/124/4
f 40/126/17 72/115/17 66/116/17 39/127/17
f 69/66/4 28/65/4 93/128/4 95/129/4
f 1/130/6 68/110/6 61/111/6 7/131/6
f 39/132/5 66/109/5 71/80/5 35/79/5
f 27/64/4 63/63/4 67/108/4 32/133/4
f 70/28/4 52/122/4 73/134/4 79/135/4
f 57/117/16 65/77/16 71/80/16 59/102/16
f 56/118/14 64/67/14 67/70/14 49/119/14
f 55/103/13 63/63/13 69/66/13 51/112/13
f 54/123/5 62/31/5 81/136/5 87/137/5
f 52/122/2 70/28/2 62/31/2 54/123/2
f 73/134/2 74/107/2 78/106/2 77/105/2
f 79/135/2 73/134/2 77/105/2 80/138/2
f 75/139/2 79/135/2 80/138/2 76/140/2
f 72/115/5 40/126/5 76/140/5 80/138/5
f 2/29/4 70/28/4 79/135/4 75/139/4
f 60/88/5 72/115/5 80/138/5 77/105/5
f 52/122/4 5/5/4 74/107/4 73/134/4
f 40/12/3 2/11/3 75/141/3 76/142/3
f 81/136/2 82/143/2 84/121/2 83/120/2
f 85/40/2 87/137/2 88/144/2 86/41/2
f 87/137/2 81/136/2 83/120/2 88/144/2
f 62/31/5 8/30/5 82/143/5 81/136/5
f 8/33/3 31/59/3 84/145/3 82/146/3
f 56/118/4 43/38/4 86/41/4 88/144/4
f 64/67/4 56/118/4 88/144/4 83/120/4
f 3/39/5 54/123/5 87/137/5 85/40/5
f 96/147/6 94/148/6 90/149/6 89/150/6
f 91/151/6 96/147/6 89/150/6 95/152/6
f 92/153/6 91/151/6 95/152/6 93/154/6
f 53/100/5 4/62/5 94/148/5 96/147/5
f 61/111/5 53/100/5 96/147/5 91/151/5
f 51/112/4 69/66/4 95/129/4 89/113/4
f 7/131/5 61/111/5 91/151/5 92/153/5
f 4/62/1 42/76/1 90/149/1 94/148/1
f 104/155/6 102/4/6 98/3/6 97/124/6
f 99/156/6 104/155/6 97/124/6 103/125/6
f 100/157/6 99/156/6 103/125/6 101/158/6
f 57/117/5 45/91/5 102/159/5 104/160/5
f 65/77/5 57/117/5 104/160/5 99/161/5
f 36/78/5 65/77/5 99/161/5 100/162/5
f 1/10/3 36/9/3 100/163/3 101/164/3
f 68/110/4 1/130/4 101/158/4 103/125/4
